PathFileType	4	(X/Y/Z)	c:/Users/goper/Files/vsCode/490R/osim_files/A02/A02_PWS_05.trc
DataRate	CameraRate	NumFrames	NumMarkers	Units                	OrigDataRate	OrigDataStartFrame	OrigNumFrames
250.00	250.00	5	36	mm	250.0	1632	2610
                Frame#	Time	Mobility_markerset:LPSIS			Mobility_markerset:LASIS			Mobility_markerset:LTH1			Mobility_markerset:LTH2			Mobility_markerset:LTH3			Mobility_markerset:LTH4			Mobility_markerset:LLFE			Mobility_markerset:LMFE			Mobility_markerset:LSH1			Mobility_markerset:LSH2			Mobility_markerset:LSH3			Mobility_markerset:LSH4			Mobility_markerset:LLMAL			Mobility_markerset:LMMAL			Mobility_markerset:LCAL			Mobility_markerset:LMTP5			Mobility_markerset:LTOE			Mobility_markerset:LMTP1			Mobility_markerset:RPSIS			Mobility_markerset:RASIS			Mobility_markerset:RTH1			Mobility_markerset:RTH2			Mobility_markerset:RTH3			Mobility_markerset:RTH4			Mobility_markerset:RLFE			Mobility_markerset:RMFE			Mobility_markerset:RSH1			Mobility_markerset:RSH2			Mobility_markerset:RSH3			Mobility_markerset:RSH4			Mobility_markerset:RLMAL			Mobility_markerset:RMMAL			Mobility_markerset:RCAL			Mobility_markerset:RMTP1			Mobility_markerset:RTOE			Mobility_markerset:RMTP5		
		X1	Y1	Z1	X2	Y2	Z2	X3	Y3	Z3	X4	Y4	Z4	X5	Y5	Z5	X6	Y6	Z6	X7	Y7	Z7	X8	Y8	Z8	X9	Y9	Z9	X10	Y10	Z10	X11	Y11	Z11	X12	Y12	Z12	X13	Y13	Z13	X14	Y14	Z14	X15	Y15	Z15	X16	Y16	Z16	X17	Y17	Z17	X18	Y18	Z18	X19	Y19	Z19	X20	Y20	Z20	X21	Y21	Z21	X22	Y22	Z22	X23	Y23	Z23	X24	Y24	Z24	X25	Y25	Z25	X26	Y26	Z26	X27	Y27	Z27	X28	Y28	Z28	X29	Y29	Z29	X30	Y30	Z30	X31	Y31	Z31	X32	Y32	Z32	X33	Y33	Z33	X34	Y34	Z34	X35	Y35	Z35	X36	Y36	Z36

1632	6.52400	-1180.89990	953.02490	295.52972	-1332.58435	924.87793	371.85059	-1286.15491	661.70673	385.94879	0.00000	0.00000	0.00000	-1341.03357	680.60016	406.30939	-1353.32068	637.89417	395.78174	0.00000	0.00000	0.00000	0.00000	0.00000	0.00000	-1330.17126	395.51312	340.47729	-1326.04102	352.26636	345.99979	-1390.03662	385.40268	347.84653	-1377.99976	342.41827	351.34369	-1329.21216	105.15580	300.56778	-1340.89136	109.31648	217.37552	-1258.84961	89.46188	255.43665	-1415.87964	45.92889	320.28455	-1467.07568	59.38358	253.01976	-1428.86011	34.62059	207.63844	-1185.57642	973.17584	194.53874	-1343.61670	958.39203	128.74898	-1310.71924	640.84979	86.18037	-1314.12769	596.85535	85.85143	-1371.55188	639.07678	91.12004	-1366.15735	596.09070	88.07995	-1321.33899	484.51523	74.56824	-1333.12231	481.15652	208.60556	-1203.14160	342.10648	95.40606	-1180.18970	302.88638	106.29602	-1252.01819	308.04636	95.36389	-1221.10181	272.04919	101.73073	-1084.17688	171.19688	105.73016	-1092.58679	170.48727	190.03064	-1028.65027	184.87965	147.19995	-1175.88989	70.44820	190.58865	-1201.48718	68.14856	157.15608	-1171.23438	71.76929	98.27744
1633	6.52800	-1185.31250	954.73157	295.60999	-1336.87231	926.39355	372.01678	-1288.65906	663.11462	385.93573	0.00000	0.00000	0.00000	-1343.86584	681.52551	406.33820	-1355.16492	638.68713	396.10825	0.00000	0.00000	0.00000	-1448.04993	496.67972	181.35577	-1330.67126	396.41385	340.63550	-1326.68799	352.98505	346.03323	-1390.65674	385.98660	347.92908	-1378.64368	343.09290	351.48151	-1329.61304	105.66624	300.60837	-1340.83630	110.02860	218.11005	-1259.30249	90.65114	255.42453	-1415.99597	45.91466	320.33490	-1467.27966	59.26989	253.06731	-1428.87988	34.72365	207.67001	-1189.91675	974.87030	194.68178	-1347.91150	960.11353	128.95755	-1316.12476	642.48157	86.17836	-1319.87842	598.44421	85.86913	-1377.03955	641.04645	91.14328	-1371.85022	597.98724	88.06070	-1327.77344	486.14529	74.56445	-1339.68457	482.80258	208.58171	-1212.40540	341.45627	95.26263	-1190.23438	301.86099	106.07069	-1261.88330	308.31097	95.18395	-1232.81592	273.45233	101.80717	-1096.79333	168.18222	105.45252	-1105.03857	167.28444	189.44031	-1040.93994	180.87579	146.92508	-1190.36890	69.55637	190.52617	-1216.23486	67.50550	156.57829	-1185.66516	70.37180	97.87741
1634	6.53200	-1189.63879	956.36591	295.70096	-1341.01929	927.82471	372.19287	-1291.14514	664.58496	386.46411	0.00000	0.00000	0.00000	-1346.46118	682.39185	406.49567	-1357.39380	639.51642	396.29868	0.00000	0.00000	0.00000	-1450.01770	497.84341	180.72202	-1331.32495	397.08075	340.62192	-1327.41602	353.72031	346.06863	-1391.53833	386.74246	348.03204	-1379.36121	343.79401	351.58063	-1330.13184	106.29462	300.68344	-1341.34070	110.68323	218.22597	-1259.76831	91.67743	255.62338	-1416.21436	45.75406	320.43561	-1467.54480	59.16886	253.11649	-1429.12244	34.72796	207.75107	-1194.26953	976.47229	194.73897	-1352.25073	961.75824	129.17688	-1321.67273	643.93140	86.18547	-1325.46619	600.01526	85.80350	-1382.47046	642.87103	91.11362	-1377.48877	599.81543	88.03246	-1334.19470	487.70105	74.51944	-1346.11328	484.47974	208.56235	-1221.67529	340.69803	95.09780	-1200.28638	300.64508	105.94745	-1271.80615	308.55664	94.98032	-1243.49573	272.95312	101.63486	-1109.47400	165.15613	105.18162	-1117.84290	164.35454	189.09834	-1053.74304	176.43958	146.72388	-1205.19995	68.31989	190.25758	-1230.72461	66.79453	156.31148	-1200.19836	69.14823	97.39380
1635	6.53600	-1193.89929	958.02356	295.79163	-1345.08191	929.21167	372.40753	-1293.55420	665.98798	386.25287	0.00000	0.00000	0.00000	-1348.91785	683.35950	406.62064	-1359.60547	640.49017	396.28510	0.00000	0.00000	0.00000	-1451.99683	499.03555	180.17209	-1332.21130	397.85464	340.67847	-1328.06323	354.46356	346.10263	-1392.25073	387.37128	348.11725	-1379.98755	344.42004	351.65979	-1330.61731	106.89471	300.76154	-1341.91699	111.31711	218.30426	-1260.32568	92.77437	255.63849	-1416.23157	45.83337	320.15744	-1467.80786	59.01097	253.19231	-1429.00574	34.89983	207.75488	-1198.63367	978.04572	194.81720	-1356.55115	963.36139	129.36809	-1327.17139	645.41821	86.41687	-1330.84009	601.45380	85.79267	-1387.84155	644.62463	91.05038	-1383.12256	601.52899	87.95728	-1340.46899	489.18219	74.46567	-1352.37524	486.01691	208.49898	-1230.98962	339.90909	94.99258	-1210.37830	299.40680	105.73133	-1281.70325	308.74756	94.77470	-1254.11682	272.38974	101.48888	-1122.35083	162.04268	104.98161	-1130.79358	161.41684	188.88232	-1066.38330	172.14847	146.59238	-1220.13782	67.38748	189.68205	-1245.42920	66.30968	155.79433	-1214.90820	68.01553	96.89321
1636	6.54000	-1198.16370	959.54364	295.80331	-1349.17505	930.57227	372.64151	-1295.91174	667.37701	385.75232	0.00000	0.00000	0.00000	-1351.37646	684.32837	406.70837	-1361.78723	641.36877	396.36722	0.00000	0.00000	0.00000	-1453.66589	500.30515	179.95001	-1333.17822	398.51080	340.53754	-1328.84375	355.27643	346.12244	-1393.10400	388.03806	348.18503	-1380.80176	345.16125	351.70840	-1331.08423	107.51369	300.86884	-1342.51221	111.98839	218.43741	-1260.85974	94.02681	255.70288	-1416.41931	45.85459	320.23111	-1468.09314	58.86293	253.27014	-1429.09607	34.99611	207.76878	-1202.97693	979.57727	194.82527	-1360.83704	964.90845	129.66177	-1332.43530	646.74652	86.37172	-1336.63989	602.83600	85.85310	-1393.19971	646.28247	91.06491	-1388.70886	603.22913	87.94000	-1346.67615	490.58490	74.42185	-1358.60327	487.57251	208.37991	-1240.28503	339.10413	94.83353	-1220.56921	298.03381	105.61892	-1291.55786	309.00964	94.54326	-1265.03320	271.70621	101.56336	-1135.31213	159.05867	104.76288	-1144.22888	158.52058	189.05701	-1079.27368	167.84399	146.42465	-1235.13110	66.22924	189.46236	-1260.78308	65.94762	155.45297	-1229.85388	66.93773	96.49173
